<svg xmlns="http://www.w3.org/2000/svg" width="613.0699462890625" height="668.9866943359375" viewBox="-196.71859741210938 -217.97811889648438 613.0699462890625 668.9866943359375"><title>Neo4j Graph Visualization</title><desc>Created using Neo4j (http://www.neo4j.com/)</desc><g class="layer relationships"><g class="relationship" transform="translate(130.4313706054565 279.09860308214576) rotate(416.3903366538268)"><path class="outline" fill="#A5ABB6" stroke="none" d="M 25 0.5 L 37.60428886475967 0.5 L 37.60428886475967 -0.5 L 25 -0.5 Z M 96.79178886475967 0.5 L 109.39607772951933 0.5 L 109.39607772951933 3.5 L 116.39607772951933 0 L 109.39607772951933 -3.5 L 109.39607772951933 -0.5 L 96.79178886475967 -0.5 Z"/><text text-anchor="middle" pointer-events="none" font-size="8px" fill="#000000" x="67.19803886475967" y="3" font-family="sans-serif">DESTINATION</text></g><g class="relationship" transform="translate(130.4313706054565 279.09860308214576) rotate(261.1263360489427)"><path class="outline" fill="#A5ABB6" stroke="none" d="M 25 0.5 L 63.571341516649724 0.5 L 63.571341516649724 -0.5 L 25 -0.5 Z M 98.01665401664972 0.5 L 136.58799553329945 0.5 L 136.58799553329945 3.5 L 143.58799553329945 0 L 136.58799553329945 -3.5 L 136.58799553329945 -0.5 L 98.01665401664972 -0.5 Z"/><text text-anchor="middle" pointer-events="none" font-size="8px" fill="#000000" x="80.79399776664972" y="3" transform="rotate(180 80.79399776664972 0)" font-family="sans-serif">ORIGIN</text></g><g class="relationship" transform="translate(237.98254762515268 63.42925184721348) rotate(385.91969251485614)"><path class="outline" fill="#A5ABB6" stroke="none" d="M 25 0.5 L 49.94355130635974 0.5 L 49.94355130635974 -0.5 L 25 -0.5 Z M 109.13105130635974 0.5 L 134.07460261271947 0.5 L 134.07460261271947 3.5 L 141.07460261271947 0 L 134.07460261271947 -3.5 L 134.07460261271947 -0.5 L 109.13105130635974 -0.5 Z"/><text text-anchor="middle" pointer-events="none" font-size="8px" fill="#000000" x="79.53730130635974" y="3" font-family="sans-serif">DESTINATION</text></g><g class="relationship" transform="translate(237.98254762515268 63.42925184721348) rotate(519.8151817418004)"><path class="outline" fill="#A5ABB6" stroke="none" d="M 25 0.5 L 50.42540334019223 0.5 L 50.42540334019223 -0.5 L 25 -0.5 Z M 84.87071584019223 0.5 L 110.29611918038447 0.5 L 110.29611918038447 3.5 L 117.29611918038447 0 L 110.29611918038447 -3.5 L 110.29611918038447 -0.5 L 84.87071584019223 -0.5 Z"/><text text-anchor="middle" pointer-events="none" font-size="8px" fill="#000000" x="67.64805959019223" y="3" transform="rotate(180 67.64805959019223 0)" font-family="sans-serif">ORIGIN</text></g><g class="relationship" transform="translate(3.7788651512019475 251.90378185256264) rotate(527.9640285075972)"><path class="outline" fill="#A5ABB6" stroke="none" d="M 25 0.5 L 40.13159520288724 0.5 L 40.13159520288724 -0.5 L 25 -0.5 Z M 99.31909520288724 0.5 L 114.45069040577448 0.5 L 114.45069040577448 3.5 L 121.45069040577448 0 L 114.45069040577448 -3.5 L 114.45069040577448 -0.5 L 99.31909520288724 -0.5 Z"/><text text-anchor="middle" pointer-events="none" font-size="8px" fill="#000000" x="69.72534520288724" y="3" transform="rotate(180 69.72534520288724 0)" font-family="sans-serif">DESTINATION</text></g><g class="relationship" transform="translate(3.7788651512019475 251.90378185256264) rotate(305.8340857902662)"><path class="outline" fill="#A5ABB6" stroke="none" d="M 25 0.5 L 65.2355452640005 0.5 L 65.2355452640005 -0.5 L 25 -0.5 Z M 99.6808577640005 0.5 L 139.916403028001 0.5 L 139.916403028001 3.5 L 146.916403028001 0 L 139.916403028001 -3.5 L 139.916403028001 -0.5 L 99.6808577640005 -0.5 Z"/><text text-anchor="middle" pointer-events="none" font-size="8px" fill="#000000" x="82.4582015140005" y="3" font-family="sans-serif">ORIGIN</text></g><g class="relationship" transform="translate(187.2180980326309 260.0051915023407) rotate(441.0795375481413)"><path class="outline" fill="#A5ABB6" stroke="none" d="M 25 0.5 L 36.17003131394185 0.5 L 36.17003131394185 -0.5 L 25 -0.5 Z M 95.35753131394185 0.5 L 106.5275626278837 0.5 L 106.5275626278837 3.5 L 113.5275626278837 0 L 106.5275626278837 -3.5 L 106.5275626278837 -0.5 L 95.35753131394185 -0.5 Z"/><text text-anchor="middle" pointer-events="none" font-size="8px" fill="#000000" x="65.76378131394185" y="3" font-family="sans-serif">DESTINATION</text></g><g class="relationship" transform="translate(187.2180980326309 260.0051915023407) rotate(240.69042876407377)"><path class="outline" fill="#A5ABB6" stroke="none" d="M 25 0.5 L 63.840901985216604 0.5 L 63.840901985216604 -0.5 L 25 -0.5 Z M 98.2862144852166 0.5 L 137.1271164704332 0.5 L 137.1271164704332 3.5 L 144.1271164704332 0 L 137.1271164704332 -3.5 L 137.1271164704332 -0.5 L 98.2862144852166 -0.5 Z"/><text text-anchor="middle" pointer-events="none" font-size="8px" fill="#000000" x="81.0635582352166" y="3" transform="rotate(180 81.0635582352166 0)" font-family="sans-serif">ORIGIN</text></g><g class="relationship" transform="translate(233.36105345898383 123.1453041402731) rotate(184.70724901842436)"><path class="outline" fill="#A5ABB6" stroke="none" d="M 25 0.5 L 43.963246231668805 0.5 L 43.963246231668805 -0.5 L 25 -0.5 Z M 78.4085587316688 0.5 L 97.37180496333761 0.5 L 97.37180496333761 3.5 L 104.37180496333761 0 L 97.37180496333761 -3.5 L 97.37180496333761 -0.5 L 78.4085587316688 -0.5 Z"/><text text-anchor="middle" pointer-events="none" font-size="8px" fill="#000000" x="61.185902481668805" y="3" transform="rotate(180 61.185902481668805 0)" font-family="sans-serif">ORIGIN</text></g><g class="relationship" transform="translate(233.36105345898383 123.1453041402731) rotate(364.7800667502497)"><path class="outline" fill="#A5ABB6" stroke="none" d="M 25 0.5 L 44.170107353129836 0.5 L 44.170107353129836 -0.5 L 25 -0.5 Z M 103.35760735312984 0.5 L 122.52771470625967 0.5 L 122.52771470625967 3.5 L 129.52771470625967 0 L 122.52771470625967 -3.5 L 122.52771470625967 -0.5 L 103.35760735312984 -0.5 Z"/><text text-anchor="middle" pointer-events="none" font-size="8px" fill="#000000" x="73.76385735312984" y="3" font-family="sans-serif">DESTINATION</text></g><g class="relationship" transform="translate(292.01142525291476 37.6376763432795) rotate(405.9004293603242)"><path class="outline" fill="#A5ABB6" stroke="none" d="M 25 0.5 L 35.40665653782885 0.5 L 35.40665653782885 -0.5 L 25 -0.5 Z M 94.59415653782885 0.5 L 105.0008130756577 0.5 L 105.0008130756577 3.5 L 112.0008130756577 0 L 105.0008130756577 -3.5 L 105.0008130756577 -0.5 L 94.59415653782885 -0.5 Z"/><text text-anchor="middle" pointer-events="none" font-size="8px" fill="#000000" x="65.00040653782885" y="3" font-family="sans-serif">DESTINATION</text></g><g class="relationship" transform="translate(292.01142525291476 37.6376763432795) rotate(518.2363959634972)"><path class="outline" fill="#A5ABB6" stroke="none" d="M 25 0.5 L 80.26875962171596 0.5 L 80.26875962171596 -0.5 L 25 -0.5 Z M 114.71407212171596 0.5 L 169.98283174343192 0.5 L 169.98283174343192 3.5 L 176.98283174343192 0 L 169.98283174343192 -3.5 L 169.98283174343192 -0.5 L 114.71407212171596 -0.5 Z"/><text text-anchor="middle" pointer-events="none" font-size="8px" fill="#000000" x="97.49141587171596" y="3" transform="rotate(180 97.49141587171596 0)" font-family="sans-serif">ORIGIN</text></g><g class="relationship" transform="translate(204.54519567859245 -19.674235626832107) rotate(304.3906983742607)"><path class="outline" fill="#A5ABB6" stroke="none" d="M 25 0.5 L 46.646127103865 0.5 L 46.646127103865 -0.5 L 25 -0.5 Z M 105.833627103865 0.5 L 127.47975420773 0.5 L 127.47975420773 3.5 L 134.47975420773 0 L 127.47975420773 -3.5 L 127.47975420773 -0.5 L 105.833627103865 -0.5 Z"/><text text-anchor="middle" pointer-events="none" font-size="8px" fill="#000000" x="76.239877103865" y="3" font-family="sans-serif">DESTINATION</text></g><g class="relationship" transform="translate(204.54519567859245 -19.674235626832107) rotate(487.1373292516678)"><path class="outline" fill="#A5ABB6" stroke="none" d="M 25 0.5 L 62.19519791564689 0.5 L 62.19519791564689 -0.5 L 25 -0.5 Z M 96.64051041564689 0.5 L 133.83570833129377 0.5 L 133.83570833129377 3.5 L 140.83570833129377 0 L 133.83570833129377 -3.5 L 133.83570833129377 -0.5 L 96.64051041564689 -0.5 Z"/><text text-anchor="middle" pointer-events="none" font-size="8px" fill="#000000" x="79.41785416564689" y="3" transform="rotate(180 79.41785416564689 0)" font-family="sans-serif">ORIGIN</text></g><g class="relationship" transform="translate(278.07643477231454 216.83368749533636) rotate(323.5161789373033)"><path class="outline" fill="#A5ABB6" stroke="none" d="M 25 0.5 L 34.86116460741094 0.5 L 34.86116460741094 -0.5 L 25 -0.5 Z M 94.04866460741094 0.5 L 103.90982921482188 0.5 L 103.90982921482188 3.5 L 110.90982921482188 0 L 103.90982921482188 -3.5 L 103.90982921482188 -0.5 L 94.04866460741094 -0.5 Z"/><text text-anchor="middle" pointer-events="none" font-size="8px" fill="#000000" x="64.45491460741094" y="3" font-family="sans-serif">DESTINATION</text></g><g class="relationship" transform="translate(278.07643477231454 216.83368749533636) rotate(210.9915851232542)"><path class="outline" fill="#A5ABB6" stroke="none" d="M 25 0.5 L 80.56182794212968 0.5 L 80.56182794212968 -0.5 L 25 -0.5 Z M 115.00714044212968 0.5 L 170.56896838425936 0.5 L 170.56896838425936 3.5 L 177.56896838425936 0 L 170.56896838425936 -3.5 L 170.56896838425936 -0.5 L 115.00714044212968 -0.5 Z"/><text text-anchor="middle" pointer-events="none" font-size="8px" fill="#000000" x="97.78448419212968" y="3" transform="rotate(180 97.78448419212968 0)" font-family="sans-serif">ORIGIN</text></g><g class="relationship" transform="translate(92.38257834232408 -54.539341324221105) rotate(287.9181679617802)"><path class="outline" fill="#A5ABB6" stroke="none" d="M 25 0.5 L 37.55218300930994 0.5 L 37.55218300930994 -0.5 L 25 -0.5 Z M 96.73968300930994 0.5 L 109.29186601861988 0.5 L 109.29186601861988 3.5 L 116.29186601861988 0 L 109.29186601861988 -3.5 L 109.29186601861988 -0.5 L 96.73968300930994 -0.5 Z"/><text text-anchor="middle" pointer-events="none" font-size="8px" fill="#000000" x="67.14593300930994" y="3" font-family="sans-serif">DESTINATION</text></g><g class="relationship" transform="translate(92.38257834232408 -54.539341324221105) rotate(445.87697985404884)"><path class="outline" fill="#A5ABB6" stroke="none" d="M 25 0.5 L 63.027992311739766 0.5 L 63.027992311739766 -0.5 L 25 -0.5 Z M 97.47330481173977 0.5 L 135.50129712347953 0.5 L 135.50129712347953 3.5 L 142.50129712347953 0 L 135.50129712347953 -3.5 L 135.50129712347953 -0.5 L 97.47330481173977 -0.5 Z"/><text text-anchor="middle" pointer-events="none" font-size="8px" fill="#000000" x="80.25064856173977" y="3" font-family="sans-serif">ORIGIN</text></g><g class="relationship" transform="translate(228.70833252209465 182.94177729121012) rotate(343.524138214603)"><path class="outline" fill="#A5ABB6" stroke="none" d="M 25 0.5 L 49.624193635434665 0.5 L 49.624193635434665 -0.5 L 25 -0.5 Z M 108.81169363543466 0.5 L 133.43588727086933 0.5 L 133.43588727086933 3.5 L 140.43588727086933 0 L 133.43588727086933 -3.5 L 133.43588727086933 -0.5 L 108.81169363543466 -0.5 Z"/><text text-anchor="middle" pointer-events="none" font-size="8px" fill="#000000" x="79.21794363543466" y="3" font-family="sans-serif">DESTINATION</text></g><g class="relationship" transform="translate(228.70833252209465 182.94177729121012) rotate(209.53405270933035)"><path class="outline" fill="#A5ABB6" stroke="none" d="M 25 0.5 L 50.69902915691959 0.5 L 50.69902915691959 -0.5 L 25 -0.5 Z M 85.1443416569196 0.5 L 110.84337081383919 0.5 L 110.84337081383919 3.5 L 117.84337081383919 0 L 110.84337081383919 -3.5 L 110.84337081383919 -0.5 L 85.1443416569196 -0.5 Z"/><text text-anchor="middle" pointer-events="none" font-size="8px" fill="#000000" x="67.9216854069196" y="3" transform="rotate(180 67.9216854069196 0)" font-family="sans-serif">ORIGIN</text></g><g class="relationship" transform="translate(-23.91431055891119 -5.538459099361973) rotate(539.7756915443508)"><path class="outline" fill="#A5ABB6" stroke="none" d="M 25 0.5 L 38.80894470096689 0.5 L 38.80894470096689 -0.5 L 25 -0.5 Z M 97.99644470096689 0.5 L 111.80538940193378 0.5 L 111.80538940193378 3.5 L 118.80538940193378 0 L 111.80538940193378 -3.5 L 111.80538940193378 -0.5 L 97.99644470096689 -0.5 Z"/><text text-anchor="middle" pointer-events="none" font-size="8px" fill="#000000" x="68.40269470096689" y="3" transform="rotate(180 68.40269470096689 0)" font-family="sans-serif">DESTINATION</text></g><g class="relationship" transform="translate(-23.91431055891119 -5.538459099361973) rotate(402.61264952305123)"><path class="outline" fill="#A5ABB6" stroke="none" d="M 25 0.5 L 66.47099933838699 0.5 L 66.47099933838699 -0.5 L 25 -0.5 Z M 100.91631183838699 0.5 L 142.38731117677398 0.5 L 142.38731117677398 3.5 L 149.38731117677398 0 L 142.38731117677398 -3.5 L 142.38731117677398 -0.5 L 100.91631183838699 -0.5 Z"/><text text-anchor="middle" pointer-events="none" font-size="8px" fill="#000000" x="83.69365558838699" y="3" font-family="sans-serif">ORIGIN</text></g><g class="relationship" transform="translate(282.6772423917265 157.13170319605004) rotate(194.0484462295757)"><path class="outline" fill="#A5ABB6" stroke="none" d="M 25 0.5 L 71.15102200491532 0.5 L 71.15102200491532 -0.5 L 25 -0.5 Z M 105.59633450491532 0.5 L 151.74735650983064 0.5 L 151.74735650983064 3.5 L 158.74735650983064 0 L 151.74735650983064 -3.5 L 151.74735650983064 -0.5 L 105.59633450491532 -0.5 Z"/><text text-anchor="middle" pointer-events="none" font-size="8px" fill="#000000" x="88.37367825491532" y="3" transform="rotate(180 88.37367825491532 0)" font-family="sans-serif">ORIGIN</text></g><g class="relationship" transform="translate(282.6772423917265 157.13170319605004) rotate(348.59819479811085)"><path class="outline" fill="#A5ABB6" stroke="none" d="M 25 0.5 L 25.554763105964682 0.5 L 25.554763105964682 -0.5 L 25 -0.5 Z M 74.22663810596468 0.5 L 74.78140121192936 0.5 L 74.78140121192936 3.5 L 81.78140121192936 0 L 74.78140121192936 -3.5 L 74.78140121192936 -0.5 L 74.22663810596468 -0.5 Z"/><text text-anchor="middle" pointer-events="none" font-size="8px" fill="#000000" x="49.89070060596468" y="3" font-family="sans-serif">DESTINA…</text></g><g class="relationship" transform="translate(-66.27889999989279 90.44612266118082) rotate(367.37084908806094)"><path class="outline" fill="#A5ABB6" stroke="none" d="M 25 0.5 L 65.34078260933642 0.5 L 65.34078260933642 -0.5 L 25 -0.5 Z M 99.78609510933642 0.5 L 140.12687771867283 0.5 L 140.12687771867283 3.5 L 147.12687771867283 0 L 140.12687771867283 -3.5 L 140.12687771867283 -0.5 L 99.78609510933642 -0.5 Z"/><text text-anchor="middle" pointer-events="none" font-size="8px" fill="#000000" x="82.56343885933642" y="3" font-family="sans-serif">ORIGIN</text></g><g class="relationship" transform="translate(-66.27889999989279 90.44612266118082) rotate(223.24899829185358)"><path class="outline" fill="#A5ABB6" stroke="none" d="M 25 0.5 L 36.539742994003745 0.5 L 36.539742994003745 -0.5 L 25 -0.5 Z M 95.72724299400375 0.5 L 107.26698598800749 0.5 L 107.26698598800749 3.5 L 114.26698598800749 0 L 107.26698598800749 -3.5 L 107.26698598800749 -0.5 L 95.72724299400375 -0.5 Z"/><text text-anchor="middle" pointer-events="none" font-size="8px" fill="#000000" x="66.13349299400375" y="3" transform="rotate(180 66.13349299400375 0)" font-family="sans-serif">DESTINATION</text></g><g class="relationship" transform="translate(-7.021291284556317 187.2163383658505) rotate(504.2815178471658)"><path class="outline" fill="#A5ABB6" stroke="none" d="M 25 0.5 L 48.46300902285424 0.5 L 48.46300902285424 -0.5 L 25 -0.5 Z M 107.65050902285424 0.5 L 131.11351804570847 0.5 L 131.11351804570847 3.5 L 138.11351804570847 0 L 131.11351804570847 -3.5 L 131.11351804570847 -0.5 L 107.65050902285424 -0.5 Z"/><text text-anchor="middle" pointer-events="none" font-size="8px" fill="#000000" x="78.05675902285424" y="3" transform="rotate(180 78.05675902285424 0)" font-family="sans-serif">DESTINATION</text></g><g class="relationship" transform="translate(-7.021291284556317 187.2163383658505) rotate(326.1713685067204)"><path class="outline" fill="#A5ABB6" stroke="none" d="M 25 0.5 L 46.356947576674116 0.5 L 46.356947576674116 -0.5 L 25 -0.5 Z M 80.80226007667412 0.5 L 102.15920765334823 0.5 L 102.15920765334823 3.5 L 109.15920765334823 0 L 102.15920765334823 -3.5 L 102.15920765334823 -0.5 L 80.80226007667412 -0.5 Z"/><text text-anchor="middle" pointer-events="none" font-size="8px" fill="#000000" x="63.579603826674116" y="3" font-family="sans-serif">ORIGIN</text></g><g class="relationship" transform="translate(-51.030387003524 227.6582374893367) rotate(508.21857345993857)"><path class="outline" fill="#A5ABB6" stroke="none" d="M 25 0.5 L 26.84108570428458 0.5 L 26.84108570428458 -0.5 L 25 -0.5 Z M 70.17702320428458 0.5 L 72.01810890856916 0.5 L 72.01810890856916 3.5 L 79.01810890856916 0 L 72.01810890856916 -3.5 L 72.01810890856916 -0.5 L 70.17702320428458 -0.5 Z"/><text text-anchor="middle" pointer-events="none" font-size="8px" fill="#000000" x="48.50905445428458" y="3" transform="rotate(180 48.50905445428458 0)" font-family="sans-serif">DESTIN…</text></g><g class="relationship" transform="translate(-51.030387003524 227.6582374893367) rotate(323.4765751834436)"><path class="outline" fill="#A5ABB6" stroke="none" d="M 25 0.5 L 76.00044791390398 0.5 L 76.00044791390398 -0.5 L 25 -0.5 Z M 110.44576041390398 0.5 L 161.44620832780797 0.5 L 161.44620832780797 3.5 L 168.44620832780797 0 L 161.44620832780797 -3.5 L 161.44620832780797 -0.5 L 110.44576041390398 -0.5 Z"/><text text-anchor="middle" pointer-events="none" font-size="8px" fill="#000000" x="93.22310416390398" y="3" font-family="sans-serif">ORIGIN</text></g><g class="relationship" transform="translate(287.3977503007617 97.31957305330951) rotate(381.1667459041476)"><path class="outline" fill="#A5ABB6" stroke="none" d="M 25 0.5 L 25.75653589139999 0.5 L 25.75653589139999 -0.5 L 25 -0.5 Z M 74.42841089139999 0.5 L 75.18494678279998 0.5 L 75.18494678279998 3.5 L 82.18494678279998 0 L 75.18494678279998 -3.5 L 75.18494678279998 -0.5 L 74.42841089139999 -0.5 Z"/><text text-anchor="middle" pointer-events="none" font-size="8px" fill="#000000" x="50.09247339139999" y="3" font-family="sans-serif">DESTINA…</text></g><g class="relationship" transform="translate(287.3977503007617 97.31957305330951) rotate(535.2484221290147)"><path class="outline" fill="#A5ABB6" stroke="none" d="M 25 0.5 L 71.078911522147 0.5 L 71.078911522147 -0.5 L 25 -0.5 Z M 105.524224022147 0.5 L 151.603135544294 0.5 L 151.603135544294 3.5 L 158.603135544294 0 L 151.603135544294 -3.5 L 151.603135544294 -0.5 L 105.524224022147 -0.5 Z"/><text text-anchor="middle" pointer-events="none" font-size="8px" fill="#000000" x="88.301567772147" y="3" transform="rotate(180 88.301567772147 0)" font-family="sans-serif">ORIGIN</text></g><g class="relationship" transform="translate(151.98450193335137 -48.69324766856869) rotate(466.4355624746841)"><path class="outline" fill="#A5ABB6" stroke="none" d="M 25 0.5 L 63.322400077784806 0.5 L 63.322400077784806 -0.5 L 25 -0.5 Z M 97.7677125777848 0.5 L 136.0901126555696 0.5 L 136.0901126555696 3.5 L 143.0901126555696 0 L 136.0901126555696 -3.5 L 136.0901126555696 -0.5 L 97.7677125777848 -0.5 Z"/><text text-anchor="middle" pointer-events="none" font-size="8px" fill="#000000" x="80.5450563277848" y="3" transform="rotate(180 80.5450563277848 0)" font-family="sans-serif">ORIGIN</text></g><g class="relationship" transform="translate(151.98450193335137 -48.69324766856869) rotate(263.4399880119454)"><path class="outline" fill="#A5ABB6" stroke="none" d="M 25 0.5 L 37.510950074781704 0.5 L 37.510950074781704 -0.5 L 25 -0.5 Z M 96.6984500747817 0.5 L 109.20940014956341 0.5 L 109.20940014956341 3.5 L 116.20940014956341 0 L 109.20940014956341 -3.5 L 109.20940014956341 -0.5 L 96.6984500747817 -0.5 Z"/><text text-anchor="middle" pointer-events="none" font-size="8px" fill="#000000" x="67.1047000747817" y="3" transform="rotate(180 67.1047000747817 0)" font-family="sans-serif">DESTINATION</text></g><g class="relationship" transform="translate(-16.47789452747099 53.97897007565337) rotate(385.83933965001785)"><path class="outline" fill="#A5ABB6" stroke="none" d="M 25 0.5 L 46.44448963075803 0.5 L 46.44448963075803 -0.5 L 25 -0.5 Z M 80.88980213075803 0.5 L 102.33429176151606 0.5 L 102.33429176151606 3.5 L 109.33429176151606 0 L 102.33429176151606 -3.5 L 102.33429176151606 -0.5 L 80.88980213075803 -0.5 Z"/><text text-anchor="middle" pointer-events="none" font-size="8px" fill="#000000" x="63.66714588075803" y="3" font-family="sans-serif">ORIGIN</text></g><g class="relationship" transform="translate(-16.47789452747099 53.97897007565337) rotate(201.2961055301124)"><path class="outline" fill="#A5ABB6" stroke="none" d="M 25 0.5 L 48.06870563537474 0.5 L 48.06870563537474 -0.5 L 25 -0.5 Z M 107.25620563537474 0.5 L 130.32491127074948 0.5 L 130.32491127074948 3.5 L 137.32491127074948 0 L 130.32491127074948 -3.5 L 130.32491127074948 -0.5 L 107.25620563537474 -0.5 Z"/><text text-anchor="middle" pointer-events="none" font-size="8px" fill="#000000" x="77.66245563537474" y="3" transform="rotate(180 77.66245563537474 0)" font-family="sans-serif">DESTINATION</text></g><g class="relationship" transform="translate(70.67535350729972 270.3802454422869) rotate(282.0686857022629)"><path class="outline" fill="#A5ABB6" stroke="none" d="M 25 0.5 L 59.98711236793139 0.5 L 59.98711236793139 -0.5 L 25 -0.5 Z M 94.43242486793139 0.5 L 129.41953723586278 0.5 L 129.41953723586278 3.5 L 136.41953723586278 0 L 129.41953723586278 -3.5 L 129.41953723586278 -0.5 L 94.43242486793139 -0.5 Z"/><text text-anchor="middle" pointer-events="none" font-size="8px" fill="#000000" x="77.20976861793139" y="3" font-family="sans-serif">ORIGIN</text></g><g class="relationship" transform="translate(70.67535350729972 270.3802454422869) rotate(464.12959454070847)"><path class="outline" fill="#A5ABB6" stroke="none" d="M 25 0.5 L 45.085649290498765 0.5 L 45.085649290498765 -0.5 L 25 -0.5 Z M 104.27314929049876 0.5 L 124.35879858099753 0.5 L 124.35879858099753 3.5 L 131.35879858099753 0 L 124.35879858099753 -3.5 L 124.35879858099753 -0.5 L 104.27314929049876 -0.5 Z"/><text text-anchor="middle" pointer-events="none" font-size="8px" fill="#000000" x="74.67939929049876" y="3" transform="rotate(180 74.67939929049876 0)" font-family="sans-serif">DESTINATION</text></g><g class="relationship" transform="translate(-64.24096048918372 169.17230600493932) rotate(341.4362360967074)"><path class="outline" fill="#A5ABB6" stroke="none" d="M 25 0.5 L 68.23933025713099 0.5 L 68.23933025713099 -0.5 L 25 -0.5 Z M 102.68464275713099 0.5 L 145.92397301426197 0.5 L 145.92397301426197 3.5 L 152.92397301426197 0 L 145.92397301426197 -3.5 L 145.92397301426197 -0.5 L 102.68464275713099 -0.5 Z"/><text text-anchor="middle" pointer-events="none" font-size="8px" fill="#000000" x="85.46198650713099" y="3" font-family="sans-serif">ORIGIN</text></g><g class="relationship" transform="translate(-64.24096048918372 169.17230600493932) rotate(483.58415966083334)"><path class="outline" fill="#A5ABB6" stroke="none" d="M 25 0.5 L 34.88951950711609 0.5 L 34.88951950711609 -0.5 L 25 -0.5 Z M 94.07701950711609 0.5 L 103.96653901423218 0.5 L 103.96653901423218 3.5 L 110.96653901423218 0 L 103.96653901423218 -3.5 L 103.96653901423218 -0.5 L 94.07701950711609 -0.5 Z"/><text text-anchor="middle" pointer-events="none" font-size="8px" fill="#000000" x="64.48326950711609" y="3" transform="rotate(180 64.48326950711609 0)" font-family="sans-serif">DESTINATION</text></g><g class="relationship" transform="translate(-71.584183894206 30.775284212484298) rotate(384.9139637141546)"><path class="outline" fill="#A5ABB6" stroke="none" d="M 25 0.5 L 76.3121723928378 0.5 L 76.3121723928378 -0.5 L 25 -0.5 Z M 110.7574848928378 0.5 L 162.0696572856756 0.5 L 162.0696572856756 3.5 L 169.0696572856756 0 L 162.0696572856756 -3.5 L 162.0696572856756 -0.5 L 110.7574848928378 -0.5 Z"/><text text-anchor="middle" pointer-events="none" font-size="8px" fill="#000000" x="93.5348286428378" y="3" font-family="sans-serif">ORIGIN</text></g><g class="relationship" transform="translate(-71.584183894206 30.775284212484298) rotate(200.39931404948334)"><path class="outline" fill="#A5ABB6" stroke="none" d="M 25 0.5 L 26.11541613475889 0.5 L 26.11541613475889 -0.5 L 25 -0.5 Z M 69.45135363475889 0.5 L 70.56676976951778 0.5 L 70.56676976951778 3.5 L 77.56676976951778 0 L 70.56676976951778 -3.5 L 70.56676976951778 -0.5 L 69.45135363475889 -0.5 Z"/><text text-anchor="middle" pointer-events="none" font-size="8px" fill="#000000" x="47.78338488475889" y="3" transform="rotate(180 47.78338488475889 0)" font-family="sans-serif">DESTIN…</text></g><g class="relationship" transform="translate(34.637905745623605 -38.110034823967545) rotate(425.14268182517816)"><path class="outline" fill="#A5ABB6" stroke="none" d="M 25 0.5 L 62.286801724654495 0.5 L 62.286801724654495 -0.5 L 25 -0.5 Z M 96.7321142246545 0.5 L 134.018915949309 0.5 L 134.018915949309 3.5 L 141.018915949309 0 L 134.018915949309 -3.5 L 134.018915949309 -0.5 L 96.7321142246545 -0.5 Z"/><text text-anchor="middle" pointer-events="none" font-size="8px" fill="#000000" x="79.5094579746545" y="3" font-family="sans-serif">ORIGIN</text></g><g class="relationship" transform="translate(34.637905745623605 -38.110034823967545) rotate(244.19247880529457)"><path class="outline" fill="#A5ABB6" stroke="none" d="M 25 0.5 L 46.57928996896861 0.5 L 46.57928996896861 -0.5 L 25 -0.5 Z M 105.76678996896861 0.5 L 127.34607993793722 0.5 L 127.34607993793722 3.5 L 134.34607993793722 0 L 127.34607993793722 -3.5 L 127.34607993793722 -0.5 L 105.76678996896861 -0.5 Z"/><text text-anchor="middle" pointer-events="none" font-size="8px" fill="#000000" x="76.17303996896861" y="3" transform="rotate(180 76.17303996896861 0)" font-family="sans-serif">DESTINATION</text></g></g><g class="layer nodes"><g class="node" transform="translate(208.69862706646674,396.8572009141458)"><circle class="outline" cx="0" cy="0" r="25" fill="#ECB5C9" stroke="#da7298" stroke-width="2px"/><text text-anchor="middle" pointer-events="none" font-family="sans-serif" dy="1.5625" font-size="25" fill="#2A2C34"/><text text-anchor="middle" pointer-events="none" x="0" y="5" font-size="10px" fill="#2A2C34" font-family="sans-serif"> EWR</text></g><g class="node" transform="translate(130.4313706054565,279.09860308214576)"><circle class="outline" cx="0" cy="0" r="25" fill="#4C8EDA" stroke="#2870c2" stroke-width="2px"/><text text-anchor="middle" pointer-events="none" font-family="sans-serif" dy="1.5625" font-size="25" fill="#FFFFFF"/><text text-anchor="middle" pointer-events="none" x="0" y="5" font-size="10px" fill="#FFFFFF" font-family="sans-serif"> 11/30/20…</text></g><g class="node" transform="translate(104.4256180356778,112.52845848469623)"><circle class="outline" cx="0" cy="0" r="25" fill="#ECB5C9" stroke="#da7298" stroke-width="2px"/><text text-anchor="middle" pointer-events="none" font-family="sans-serif" dy="1.5625" font-size="25" fill="#2A2C34"/><text text-anchor="middle" pointer-events="none" x="0" y="5" font-size="10px" fill="#2A2C34" font-family="sans-serif"> LAX</text></g><g class="node" transform="translate(387.35130694875744,136.02227748397647)"><circle class="outline" cx="0" cy="0" r="25" fill="#ECB5C9" stroke="#da7298" stroke-width="2px"/><text text-anchor="middle" pointer-events="none" font-family="sans-serif" dy="1.5625" font-size="25" fill="#2A2C34"/><text text-anchor="middle" pointer-events="none" x="0" y="5" font-size="10px" fill="#2A2C34" font-family="sans-serif"> ABQ</text></g><g class="node" transform="translate(237.98254762515268,63.42925184721348)"><circle class="outline" cx="0" cy="0" r="25" fill="#4C8EDA" stroke="#2870c2" stroke-width="2px"/><text text-anchor="middle" pointer-events="none" font-family="sans-serif" dy="1.5625" font-size="25" fill="#FFFFFF"/><text text-anchor="middle" pointer-events="none" x="0" y="5" font-size="10px" fill="#FFFFFF" font-family="sans-serif"> 11/3/2015</text></g><g class="node" transform="translate(-139.45238166241495,282.44252211054913)"><circle class="outline" cx="0" cy="0" r="25" fill="#ECB5C9" stroke="#da7298" stroke-width="2px"/><text text-anchor="middle" pointer-events="none" font-family="sans-serif" dy="1.5625" font-size="25" fill="#2A2C34"/><text text-anchor="middle" pointer-events="none" x="0" y="5" font-size="10px" fill="#2A2C34" font-family="sans-serif"> FAT</text></g><g class="node" transform="translate(3.7788651512019475,251.90378185256264)"><circle class="outline" cx="0" cy="0" r="25" fill="#4C8EDA" stroke="#2870c2" stroke-width="2px"/><text text-anchor="middle" pointer-events="none" font-family="sans-serif" dy="1.5625" font-size="25" fill="#FFFFFF"/><text text-anchor="middle" pointer-events="none" x="0" y="5" font-size="10px" fill="#FFFFFF" font-family="sans-serif"> 11/2/2015</text></g><g class="node" transform="translate(187.2180980326309,260.0051915023407)"><circle class="outline" cx="0" cy="0" r="25" fill="#4C8EDA" stroke="#2870c2" stroke-width="2px"/><text text-anchor="middle" pointer-events="none" font-family="sans-serif" dy="1.5625" font-size="25" fill="#FFFFFF"/><text text-anchor="middle" pointer-events="none" x="0" y="5" font-size="10px" fill="#FFFFFF" font-family="sans-serif"> 11/29/20…</text></g><g class="node" transform="translate(233.36105345898383,123.1453041402731)"><circle class="outline" cx="0" cy="0" r="25" fill="#4C8EDA" stroke="#2870c2" stroke-width="2px"/><text text-anchor="middle" pointer-events="none" font-family="sans-serif" dy="1.5625" font-size="25" fill="#FFFFFF"/><text text-anchor="middle" pointer-events="none" x="0" y="5" font-size="10px" fill="#FFFFFF" font-family="sans-serif"> 11/4/2015</text></g><g class="node" transform="translate(292.01142525291476,37.6376763432795)"><circle class="outline" cx="0" cy="0" r="25" fill="#4C8EDA" stroke="#2870c2" stroke-width="2px"/><text text-anchor="middle" pointer-events="none" font-family="sans-serif" dy="1.5625" font-size="25" fill="#FFFFFF"/><text text-anchor="middle" pointer-events="none" x="0" y="5" font-size="10px" fill="#FFFFFF" font-family="sans-serif"> 11/2/2015</text></g><g class="node" transform="translate(294.62463066566954,-151.27775911525137)"><circle class="outline" cx="0" cy="0" r="25" fill="#ECB5C9" stroke="#da7298" stroke-width="2px"/><text text-anchor="middle" pointer-events="none" font-family="sans-serif" dy="1.5625" font-size="25" fill="#2A2C34"/><text text-anchor="middle" pointer-events="none" x="0" y="5" font-size="10px" fill="#2A2C34" font-family="sans-serif"> BOS</text></g><g class="node" transform="translate(204.54519567859245,-19.674235626832107)"><circle class="outline" cx="0" cy="0" r="25" fill="#4C8EDA" stroke="#2870c2" stroke-width="2px"/><text text-anchor="middle" pointer-events="none" font-family="sans-serif" dy="1.5625" font-size="25" fill="#FFFFFF"/><text text-anchor="middle" pointer-events="none" x="0" y="5" font-size="10px" fill="#FFFFFF" font-family="sans-serif"> 11/29/20…</text></g><g class="node" transform="translate(278.07643477231454,216.83368749533636)"><circle class="outline" cx="0" cy="0" r="25" fill="#4C8EDA" stroke="#2870c2" stroke-width="2px"/><text text-anchor="middle" pointer-events="none" font-family="sans-serif" dy="1.5625" font-size="25" fill="#FFFFFF"/><text text-anchor="middle" pointer-events="none" x="0" y="5" font-size="10px" fill="#FFFFFF" font-family="sans-serif"> 11/1/2015</text></g><g class="node" transform="translate(135.8521998803004,-188.9781132851727)"><circle class="outline" cx="0" cy="0" r="25" fill="#ECB5C9" stroke="#da7298" stroke-width="2px"/><text text-anchor="middle" pointer-events="none" font-family="sans-serif" dy="1.5625" font-size="25" fill="#2A2C34"/><text text-anchor="middle" pointer-events="none" x="0" y="5" font-size="10px" fill="#2A2C34" font-family="sans-serif"> TUS</text></g><g class="node" transform="translate(92.38257834232408,-54.539341324221105)"><circle class="outline" cx="0" cy="0" r="25" fill="#4C8EDA" stroke="#2870c2" stroke-width="2px"/><text text-anchor="middle" pointer-events="none" font-family="sans-serif" dy="1.5625" font-size="25" fill="#FFFFFF"/><text text-anchor="middle" pointer-events="none" x="0" y="5" font-size="10px" fill="#FFFFFF" font-family="sans-serif"> 11/2/2015</text></g><g class="node" transform="translate(228.70833252209465,182.94177729121012)"><circle class="outline" cx="0" cy="0" r="25" fill="#4C8EDA" stroke="#2870c2" stroke-width="2px"/><text text-anchor="middle" pointer-events="none" font-family="sans-serif" dy="1.5625" font-size="25" fill="#FFFFFF"/><text text-anchor="middle" pointer-events="none" x="0" y="5" font-size="10px" fill="#FFFFFF" font-family="sans-serif"> 11/1/2015</text></g><g class="node" transform="translate(-167.71859793789778,-4.975473785484131)"><circle class="outline" cx="0" cy="0" r="25" fill="#ECB5C9" stroke="#da7298" stroke-width="2px"/><text text-anchor="middle" pointer-events="none" font-family="sans-serif" dy="1.5625" font-size="25" fill="#2A2C34"/><text text-anchor="middle" pointer-events="none" x="0" y="5" font-size="10px" fill="#2A2C34" font-family="sans-serif"> SMF</text></g><g class="node" transform="translate(-23.91431055891119,-5.538459099361973)"><circle class="outline" cx="0" cy="0" r="25" fill="#4C8EDA" stroke="#2870c2" stroke-width="2px"/><text text-anchor="middle" pointer-events="none" font-family="sans-serif" dy="1.5625" font-size="25" fill="#FFFFFF"/><text text-anchor="middle" pointer-events="none" x="0" y="5" font-size="10px" fill="#FFFFFF" font-family="sans-serif"> 11/3/2015</text></g><g class="node" transform="translate(282.6772423917265,157.13170319605004)"><circle class="outline" cx="0" cy="0" r="25" fill="#4C8EDA" stroke="#2870c2" stroke-width="2px"/><text text-anchor="middle" pointer-events="none" font-family="sans-serif" dy="1.5625" font-size="25" fill="#FFFFFF"/><text text-anchor="middle" pointer-events="none" x="0" y="5" font-size="10px" fill="#FFFFFF" font-family="sans-serif"> 11/3/2015</text></g><g class="node" transform="translate(-66.27889999989279,90.44612266118082)"><circle class="outline" cx="0" cy="0" r="25" fill="#4C8EDA" stroke="#2870c2" stroke-width="2px"/><text text-anchor="middle" pointer-events="none" font-family="sans-serif" dy="1.5625" font-size="25" fill="#FFFFFF"/><text text-anchor="middle" pointer-events="none" x="0" y="5" font-size="10px" fill="#FFFFFF" font-family="sans-serif"> 11/1/2015</text></g><g class="node" transform="translate(-7.021291284556317,187.2163383658505)"><circle class="outline" cx="0" cy="0" r="25" fill="#4C8EDA" stroke="#2870c2" stroke-width="2px"/><text text-anchor="middle" pointer-events="none" font-family="sans-serif" dy="1.5625" font-size="25" fill="#FFFFFF"/><text text-anchor="middle" pointer-events="none" x="0" y="5" font-size="10px" fill="#FFFFFF" font-family="sans-serif"> 11/1/2015</text></g><g class="node" transform="translate(-51.030387003524,227.6582374893367)"><circle class="outline" cx="0" cy="0" r="25" fill="#4C8EDA" stroke="#2870c2" stroke-width="2px"/><text text-anchor="middle" pointer-events="none" font-family="sans-serif" dy="1.5625" font-size="25" fill="#FFFFFF"/><text text-anchor="middle" pointer-events="none" x="0" y="5" font-size="10px" fill="#FFFFFF" font-family="sans-serif"> 11/3/2015</text></g><g class="node" transform="translate(287.3977503007617,97.31957305330951)"><circle class="outline" cx="0" cy="0" r="25" fill="#4C8EDA" stroke="#2870c2" stroke-width="2px"/><text text-anchor="middle" pointer-events="none" font-family="sans-serif" dy="1.5625" font-size="25" fill="#FFFFFF"/><text text-anchor="middle" pointer-events="none" x="0" y="5" font-size="10px" fill="#FFFFFF" font-family="sans-serif"> 11/2/2015</text></g><g class="node" transform="translate(151.98450193335137,-48.69324766856869)"><circle class="outline" cx="0" cy="0" r="25" fill="#4C8EDA" stroke="#2870c2" stroke-width="2px"/><text text-anchor="middle" pointer-events="none" font-family="sans-serif" dy="1.5625" font-size="25" fill="#FFFFFF"/><text text-anchor="middle" pointer-events="none" x="0" y="5" font-size="10px" fill="#FFFFFF" font-family="sans-serif"> 11/1/2015</text></g><g class="node" transform="translate(-16.47789452747099,53.97897007565337)"><circle class="outline" cx="0" cy="0" r="25" fill="#4C8EDA" stroke="#2870c2" stroke-width="2px"/><text text-anchor="middle" pointer-events="none" font-family="sans-serif" dy="1.5625" font-size="25" fill="#FFFFFF"/><text text-anchor="middle" pointer-events="none" x="0" y="5" font-size="10px" fill="#FFFFFF" font-family="sans-serif"> 11/2/2015</text></g><g class="node" transform="translate(32.50567846605064,422.00857327366015)"><circle class="outline" cx="0" cy="0" r="25" fill="#ECB5C9" stroke="#da7298" stroke-width="2px"/><text text-anchor="middle" pointer-events="none" font-family="sans-serif" dy="1.5625" font-size="25" fill="#2A2C34"/><text text-anchor="middle" pointer-events="none" x="0" y="5" font-size="10px" fill="#2A2C34" font-family="sans-serif"> LAS</text></g><g class="node" transform="translate(70.67535350729972,270.3802454422869)"><circle class="outline" cx="0" cy="0" r="25" fill="#4C8EDA" stroke="#2870c2" stroke-width="2px"/><text text-anchor="middle" pointer-events="none" font-family="sans-serif" dy="1.5625" font-size="25" fill="#FFFFFF"/><text text-anchor="middle" pointer-events="none" x="0" y="5" font-size="10px" fill="#FFFFFF" font-family="sans-serif"> 11/29/20…</text></g><g class="node" transform="translate(-64.24096048918372,169.17230600493932)"><circle class="outline" cx="0" cy="0" r="25" fill="#4C8EDA" stroke="#2870c2" stroke-width="2px"/><text text-anchor="middle" pointer-events="none" font-family="sans-serif" dy="1.5625" font-size="25" fill="#FFFFFF"/><text text-anchor="middle" pointer-events="none" x="0" y="5" font-size="10px" fill="#FFFFFF" font-family="sans-serif"> 11/4/2015</text></g><g class="node" transform="translate(-71.584183894206,30.775284212484298)"><circle class="outline" cx="0" cy="0" r="25" fill="#4C8EDA" stroke="#2870c2" stroke-width="2px"/><text text-anchor="middle" pointer-events="none" font-family="sans-serif" dy="1.5625" font-size="25" fill="#FFFFFF"/><text text-anchor="middle" pointer-events="none" x="0" y="5" font-size="10px" fill="#FFFFFF" font-family="sans-serif"> 11/4/2015</text></g><g class="node" transform="translate(-34.73329544486504,-181.5631966468295)"><circle class="outline" cx="0" cy="0" r="25" fill="#ECB5C9" stroke="#da7298" stroke-width="2px"/><text text-anchor="middle" pointer-events="none" font-family="sans-serif" dy="1.5625" font-size="25" fill="#2A2C34"/><text text-anchor="middle" pointer-events="none" x="0" y="5" font-size="10px" fill="#2A2C34" font-family="sans-serif"> IAH</text></g><g class="node" transform="translate(34.637905745623605,-38.110034823967545)"><circle class="outline" cx="0" cy="0" r="25" fill="#4C8EDA" stroke="#2870c2" stroke-width="2px"/><text text-anchor="middle" pointer-events="none" font-family="sans-serif" dy="1.5625" font-size="25" fill="#FFFFFF"/><text text-anchor="middle" pointer-events="none" x="0" y="5" font-size="10px" fill="#FFFFFF" font-family="sans-serif"> 11/30/20…</text></g></g></svg>