<svg xmlns="http://www.w3.org/2000/svg" width="163.39927673339844" height="243.625244140625" viewBox="-1.6213111877441406 -20.88934898376465 163.39927673339844 243.625244140625"><title>Neo4j Graph Visualization</title><desc>Created using Neo4j (http://www.neo4j.com/)</desc><g class="layer relationships"><g class="relationship" transform="translate(132.77797442407967 8.110651382646497) rotate(522.1316456214377)"><path class="outline" fill="#A5ABB6" stroke="none" d="M 21.40063509461097,12.933012701892217 L 21.90063509461097,12.06698729810778 A 59.94679461498728 59.94679461498728 0 0 0 40.50764999263582,19.01089413517741 L 40.318042149840046,19.992754036563717 A 60.94679461498728 60.94679461498728 0 0 1 21.40063509461097,12.933012701892217 Z M 59.721686088598624,20.59098192362636 L 59.592923719124244,19.59930644636208 A 59.94679461498728 59.94679461498728 0 0 0 78.59236347056336,13.814832856772737 L 77.25526123315137,11.129286803042161 L 85.0814879688367,11.142518645099868 L 80.37516645377934,17.395560928413502 L 79.03806421636736,14.710014874682928 A 60.94679461498728 60.94679461498728 0 0 1 59.721686088598624,20.59098192362636"/><text text-anchor="middle" pointer-events="none" font-size="8px" fill="#000000" x="50.01130061287799" y="23.569627060720038" transform="rotate(180 50.01130061287799 20.569627060720038)" font-family="sans-serif">trek</text></g><g class="relationship" transform="translate(30.500424720011697 41.083027762034945) rotate(451.67698141720666)"><path class="outline" fill="#A5ABB6" stroke="none" d="M 25 0.5 L 40.168277844353554 0.5 L 40.168277844353554 -0.5 L 25 -0.5 Z M 59.504215344353554 0.5 L 74.67249318870711 0.5 L 74.67249318870711 3.5 L 81.67249318870711 0 L 74.67249318870711 -3.5 L 74.67249318870711 -0.5 L 59.504215344353554 -0.5 Z"/><text text-anchor="middle" pointer-events="none" font-size="8px" fill="#000000" x="49.836246594353554" y="3" transform="rotate(180 49.836246594353554 0)" font-family="sans-serif">trek</text></g><g class="relationship" transform="translate(27.378689572067874 147.7098328945196) rotate(385.39728265591464)"><path class="outline" fill="#A5ABB6" stroke="none" d="M 25 0.5 L 40.488938653297424 0.5 L 40.488938653297424 -0.5 L 25 -0.5 Z M 59.824876153297424 0.5 L 75.31381480659485 0.5 L 75.31381480659485 3.5 L 82.31381480659485 0 L 75.31381480659485 -3.5 L 75.31381480659485 -0.5 L 59.824876153297424 -0.5 Z"/><text text-anchor="middle" pointer-events="none" font-size="8px" fill="#000000" x="50.156907403297424" y="3" font-family="sans-serif">trek</text></g><g class="relationship" transform="translate(132.77797442407967 8.110651382646497) rotate(522.1316456214377)"><path class="outline" fill="#A5ABB6" stroke="none" d="M 25 0.5 L 39.22465983329574 0.5 L 39.22465983329574 -0.5 L 25 -0.5 Z M 61.23637858329574 0.5 L 75.46103841659148 0.5 L 75.46103841659148 3.5 L 82.46103841659148 0 L 75.46103841659148 -3.5 L 75.46103841659148 -0.5 L 61.23637858329574 -0.5 Z"/><text text-anchor="middle" pointer-events="none" font-size="8px" fill="#000000" x="50.23051920829574" y="3" transform="rotate(180 50.23051920829574 0)" font-family="sans-serif">road</text></g><g class="relationship" transform="translate(132.77797442407967 8.110651382646497) rotate(522.1316456214377)"><path class="outline" fill="#A5ABB6" stroke="none" d="M 21.40063509461097,-12.933012701892217 L 21.90063509461097,-12.06698729810778 A 59.94679461498728 59.94679461498728 0 0 1 23.47373963770348,-12.94397871724017 L 22.999981316732292,-13.824633617476671 A 60.94679461498728 60.94679461498728 0 0 0 21.40063509461097,-12.933012701892217 Z M 77.3868291851344,-15.501418101205608 L 76.96822149716328,-14.593250934010335 A 59.94679461498728 59.94679461498728 0 0 1 78.59236347056336,-13.814832856772737 L 77.25526123315137,-11.129286803042161 L 85.0814879688367,-11.142518645099868 L 80.37516645377934,-17.395560928413502 L 79.03806421636736,-14.710014874682928 A 60.94679461498728 60.94679461498728 0 0 0 77.3868291851344,-15.501418101205608"/><text text-anchor="middle" pointer-events="none" font-size="8px" fill="#000000" x="50.011300612877996" y="-17.569627060720038" transform="rotate(180 50.011300612877996 -20.569627060720038)" font-family="sans-serif">PublicTrans…</text></g></g><g class="layer nodes"><g class="node" transform="translate(132.77797442407967,8.110651382646497)"><circle class="outline" cx="0" cy="0" r="25" fill="#F16667" stroke="#eb2728" stroke-width="2px"/><text text-anchor="middle" pointer-events="none" font-family="sans-serif" dy="1.5625" font-size="25" fill="#FFFFFF"/><text text-anchor="middle" pointer-events="none" x="0" y="5" font-size="10px" fill="#FFFFFF" font-family="sans-serif"> Darjeeling</text></g><g class="node" transform="translate(124.32122886765148,193.735900761201)"><circle class="outline" cx="0" cy="0" r="25" fill="#8DCC93" stroke="#5db665" stroke-width="2px"/><text text-anchor="middle" pointer-events="none" font-family="sans-serif" dy="1.5625" font-size="25" fill="#2A2C34"/><text text-anchor="middle" pointer-events="none" x="0" y="5" font-size="10px" fill="#2A2C34" font-family="sans-serif"> Sandak…</text></g><g class="node" transform="translate(30.500424720011697,41.083027762034945)"><circle class="outline" cx="0" cy="0" r="25" fill="#F16667" stroke="#eb2728" stroke-width="2px"/><text text-anchor="middle" pointer-events="none" font-family="sans-serif" dy="1.5625" font-size="25" fill="#FFFFFF"/><text text-anchor="middle" pointer-events="none" x="0" y="5" font-size="10px" fill="#FFFFFF" font-family="sans-serif"> Rimbik</text></g><g class="node" transform="translate(27.378689572067874,147.7098328945196)"><circle class="outline" cx="0" cy="0" r="25" fill="#D9C8AE" stroke="#c0a378" stroke-width="2px"/><text text-anchor="middle" pointer-events="none" font-family="sans-serif" dy="1.5625" font-size="25" fill="#2A2C34"/><text text-anchor="middle" pointer-events="none" x="0" y="5" font-size="10px" fill="#2A2C34" font-family="sans-serif"> BhikeBh…</text></g></g></svg>