<svg xmlns="http://www.w3.org/2000/svg" width="168.5391845703125" height="245.57077026367188" viewBox="-5.380365371704102 -21.25188446044922 168.5391845703125 245.57077026367188"><title>Neo4j Graph Visualization</title><desc>Created using Neo4j (http://www.neo4j.com/)</desc><g class="layer relationships"><g class="relationship" transform="translate(134.15880993445876 7.748115610792988) rotate(525.2419346307422)"><path class="outline" fill="#A5ABB6" stroke="none" d="M 21.40063509461097,12.933012701892217 L 21.90063509461097,12.06698729810778 A 61.81040914663062 61.81040914663062 0 0 0 41.40579169080211,19.287628149700417 L 41.221355960081084,20.27047272603658 A 62.81040914663062 62.81040914663062 0 0 1 21.40063509461097,12.933012701892217 Z M 60.62540672540771,20.859363550698674 L 60.50091196150279,19.86714328595891 A 61.81040914663062 61.81040914663062 0 0 0 80.4080441783494,13.842620479079109 L 79.06835698529378,11.158362997993747 L 86.89459283305784,11.16405994213021 L 82.19429376909022,17.421630453859592 L 80.8546065760346,14.737372972774232 A 62.81040914663062 62.81040914663062 0 0 1 60.62540672540771,20.859363550698674"/><text text-anchor="middle" pointer-events="none" font-size="8px" fill="#000000" x="50.91566004733225" y="23.819336108349184" transform="rotate(180 50.91566004733225 20.819336108349184)" font-family="sans-serif">trek</text></g><g class="relationship" transform="translate(28.49999469297249 35.581665012494035) rotate(452.63209234421214)"><path class="outline" fill="#A5ABB6" stroke="none" d="M 25 0.5 L 39.9689132526841 0.5 L 39.9689132526841 -0.5 L 25 -0.5 Z M 59.3048507526841 0.5 L 74.2737640053682 0.5 L 74.2737640053682 3.5 L 81.2737640053682 0 L 74.2737640053682 -3.5 L 74.2737640053682 -0.5 L 59.3048507526841 -0.5 Z"/><text text-anchor="middle" pointer-events="none" font-size="8px" fill="#000000" x="49.6368820026841" y="3" transform="rotate(180 49.6368820026841 0)" font-family="sans-serif">trek</text></g><g class="relationship" transform="translate(23.619635485453827 141.7433106754842) rotate(390.0232435812314)"><path class="outline" fill="#A5ABB6" stroke="none" d="M 25 0.5 L 40.3700064237193 0.5 L 40.3700064237193 -0.5 L 25 -0.5 Z M 59.7059439237193 0.5 L 75.0759503474386 0.5 L 75.0759503474386 3.5 L 82.0759503474386 0 L 75.0759503474386 -3.5 L 75.0759503474386 -0.5 L 59.7059439237193 -0.5 Z"/><text text-anchor="middle" pointer-events="none" font-size="8px" fill="#000000" x="50.0379751737193" y="3" font-family="sans-serif">trek</text></g><g class="relationship" transform="translate(134.15880993445876 7.748115610792988) rotate(525.2419346307422)"><path class="outline" fill="#A5ABB6" stroke="none" d="M 25 0.5 L 40.12584321271793 0.5 L 40.12584321271793 -0.5 L 25 -0.5 Z M 62.13756196271793 0.5 L 77.26340517543586 0.5 L 77.26340517543586 3.5 L 84.26340517543586 0 L 77.26340517543586 -3.5 L 77.26340517543586 -0.5 L 62.13756196271793 -0.5 Z"/><text text-anchor="middle" pointer-events="none" font-size="8px" fill="#000000" x="51.13170258771793" y="3" transform="rotate(180 51.13170258771793 0)" font-family="sans-serif">road</text></g><g class="relationship" transform="translate(134.15880993445876 7.748115610792988) rotate(525.2419346307422)"><path class="outline" fill="#A5ABB6" stroke="none" d="M 21.40063509461097,-12.933012701892217 L 21.90063509461097,-12.06698729810778 A 61.81040914663062 61.81040914663062 0 0 1 22.365580268666545,-12.332744608053822 L 21.8731023863887,-13.203069567748265 A 62.81040914663062 62.81040914663062 0 0 0 21.40063509461097,-12.933012701892217 Z M 80.36663206621,-14.97828152462997 L 79.92783867554854,-14.079693543232587 A 61.81040914663062 61.81040914663062 0 0 1 80.4080441783494,-13.842620479079109 L 79.06835698529378,-11.158362997993747 L 86.89459283305784,-11.16405994213021 L 82.19429376909022,-17.421630453859592 L 80.8546065760346,-14.737372972774232 A 62.81040914663062 62.81040914663062 0 0 0 80.36663206621,-14.97828152462997"/><text text-anchor="middle" pointer-events="none" font-size="8px" fill="#000000" x="50.91566004733225" y="-17.819336108349184" transform="rotate(180 50.91566004733225 -20.819336108349184)" font-family="sans-serif">PublicTransp…</text></g></g><g class="layer nodes"><g class="node" transform="translate(134.15880993445876,7.748115610792988)"><circle class="outline" cx="0" cy="0" r="25" fill="#F16667" stroke="#eb2728" stroke-width="2px"/><text text-anchor="middle" pointer-events="none" font-family="sans-serif" dy="1.5625" font-size="25" fill="#FFFFFF"/><text text-anchor="middle" pointer-events="none" x="0" y="5" font-size="10px" fill="#FFFFFF" font-family="sans-serif"> Darjeeling</text></g><g class="node" transform="translate(116.32840186442965,195.3189000730412)"><circle class="outline" cx="0" cy="0" r="25" fill="#8DCC93" stroke="#5db665" stroke-width="2px"/><text text-anchor="middle" pointer-events="none" font-family="sans-serif" dy="1.5625" font-size="25" fill="#2A2C34"/><text text-anchor="middle" pointer-events="none" x="0" y="5" font-size="10px" fill="#2A2C34" font-family="sans-serif"> Sandak…</text></g><g class="node" transform="translate(28.49999469297249,35.581665012494035)"><circle class="outline" cx="0" cy="0" r="25" fill="#F16667" stroke="#eb2728" stroke-width="2px"/><text text-anchor="middle" pointer-events="none" font-family="sans-serif" dy="1.5625" font-size="25" fill="#FFFFFF"/><text text-anchor="middle" pointer-events="none" x="0" y="5" font-size="10px" fill="#FFFFFF" font-family="sans-serif"> Rimbik</text></g><g class="node" transform="translate(23.619635485453827,141.7433106754842)"><circle class="outline" cx="0" cy="0" r="25" fill="#D9C8AE" stroke="#c0a378" stroke-width="2px"/><text text-anchor="middle" pointer-events="none" font-family="sans-serif" dy="1.5625" font-size="25" fill="#2A2C34"/><text text-anchor="middle" pointer-events="none" x="0" y="5" font-size="10px" fill="#2A2C34" font-family="sans-serif"> BhikeBh…</text></g></g></svg>